<mxfile modified="2023-09-12T05:59:41.632Z" host="app.diagrams.net" agent="Mozilla/5.0 (Windows NT 10.0; Win64; x64) AppleWebKit/537.36 (KHTML, like Gecko) Chrome/116.0.0.0 Safari/537.36" etag="lZDUYGKPCLiWtvcMMiQi" version="21.6.9" type="github">
  <diagram id="Ht1M8jgEwFfnCIfOTk4-" name="Page-1">
    <mxGraphModel dx="1313" dy="678" grid="1" gridSize="10" guides="1" tooltips="1" connect="1" arrows="1" fold="1" page="1" pageScale="1" pageWidth="1169" pageHeight="827" math="0" shadow="0">
      <root>
        <mxCell id="0" />
        <mxCell id="1" parent="0" />
        <mxCell id="UEzPUAAOIrF-is8g5C7q-75" value="AWS Cloud" style="points=[[0,0],[0.25,0],[0.5,0],[0.75,0],[1,0],[1,0.25],[1,0.5],[1,0.75],[1,1],[0.75,1],[0.5,1],[0.25,1],[0,1],[0,0.75],[0,0.5],[0,0.25]];outlineConnect=0;gradientColor=none;html=1;whiteSpace=wrap;fontSize=12;fontStyle=0;shape=mxgraph.aws4.group;grIcon=mxgraph.aws4.group_aws_cloud_alt;strokeColor=#232F3E;fillColor=none;verticalAlign=top;align=left;spacingLeft=30;fontColor=#232F3E;dashed=0;labelBackgroundColor=#ffffff;container=1;pointerEvents=0;collapsible=0;recursiveResize=0;" parent="1" vertex="1">
          <mxGeometry x="250" y="80" width="870" height="650" as="geometry" />
        </mxCell>
        <mxCell id="7pCIFEGCw0U9bMdRgQC4-2" value="VPC" style="points=[[0,0],[0.25,0],[0.5,0],[0.75,0],[1,0],[1,0.25],[1,0.5],[1,0.75],[1,1],[0.75,1],[0.5,1],[0.25,1],[0,1],[0,0.75],[0,0.5],[0,0.25]];outlineConnect=0;gradientColor=none;html=1;whiteSpace=wrap;fontSize=12;fontStyle=0;container=1;pointerEvents=0;collapsible=0;recursiveResize=0;shape=mxgraph.aws4.group;grIcon=mxgraph.aws4.group_vpc;strokeColor=#248814;fillColor=none;verticalAlign=top;align=left;spacingLeft=30;fontColor=#AAB7B8;dashed=0;" vertex="1" parent="UEzPUAAOIrF-is8g5C7q-75">
          <mxGeometry x="210" y="30" width="650" height="590" as="geometry" />
        </mxCell>
        <mxCell id="UEzPUAAOIrF-is8g5C7q-108" value="" style="rounded=0;whiteSpace=wrap;html=1;labelBackgroundColor=none;fillColor=none;dashed=1;container=1;pointerEvents=0;collapsible=0;recursiveResize=0;" parent="7pCIFEGCw0U9bMdRgQC4-2" vertex="1">
          <mxGeometry x="30" y="64.5" width="350" height="460" as="geometry" />
        </mxCell>
        <mxCell id="7pCIFEGCw0U9bMdRgQC4-4" value="" style="outlineConnect=0;dashed=0;verticalLabelPosition=bottom;verticalAlign=top;align=center;html=1;shape=mxgraph.aws3.ec2;fillColor=#F58534;gradientColor=none;" vertex="1" parent="UEzPUAAOIrF-is8g5C7q-108">
          <mxGeometry x="-10" y="-23" width="80" height="73" as="geometry" />
        </mxCell>
        <mxCell id="7pCIFEGCw0U9bMdRgQC4-48" value="" style="rounded=0;orthogonalLoop=1;jettySize=auto;html=1;strokeWidth=2;startArrow=classic;startFill=1;" edge="1" parent="UEzPUAAOIrF-is8g5C7q-108" source="7pCIFEGCw0U9bMdRgQC4-5" target="7pCIFEGCw0U9bMdRgQC4-8">
          <mxGeometry relative="1" as="geometry" />
        </mxCell>
        <mxCell id="7pCIFEGCw0U9bMdRgQC4-5" value="" style="shape=image;html=1;verticalAlign=top;verticalLabelPosition=bottom;labelBackgroundColor=#ffffff;imageAspect=0;aspect=fixed;image=https://cdn2.iconfinder.com/data/icons/boxicons-logos/24/bxl-django-128.png" vertex="1" parent="UEzPUAAOIrF-is8g5C7q-108">
          <mxGeometry x="120" y="350" width="110" height="110" as="geometry" />
        </mxCell>
        <mxCell id="7pCIFEGCw0U9bMdRgQC4-49" value="" style="edgeStyle=orthogonalEdgeStyle;rounded=0;orthogonalLoop=1;jettySize=auto;html=1;startArrow=classic;startFill=1;strokeWidth=2;" edge="1" parent="UEzPUAAOIrF-is8g5C7q-108" source="7pCIFEGCw0U9bMdRgQC4-8" target="7pCIFEGCw0U9bMdRgQC4-10">
          <mxGeometry relative="1" as="geometry" />
        </mxCell>
        <mxCell id="7pCIFEGCw0U9bMdRgQC4-8" value="" style="shape=image;verticalLabelPosition=bottom;labelBackgroundColor=default;verticalAlign=top;aspect=fixed;imageAspect=0;image=https://www.vectorlogo.zone/logos/gunicorn/gunicorn-ar21.svg;" vertex="1" parent="UEzPUAAOIrF-is8g5C7q-108">
          <mxGeometry x="66" y="180" width="218" height="109" as="geometry" />
        </mxCell>
        <mxCell id="7pCIFEGCw0U9bMdRgQC4-10" value="" style="shape=image;verticalLabelPosition=bottom;labelBackgroundColor=default;verticalAlign=top;aspect=fixed;imageAspect=0;image=https://upload.wikimedia.org/wikipedia/commons/thumb/c/c5/Nginx_logo.svg/512px-Nginx_logo.svg.png;" vertex="1" parent="UEzPUAAOIrF-is8g5C7q-108">
          <mxGeometry x="77.82" y="70" width="194.36" height="41" as="geometry" />
        </mxCell>
        <mxCell id="7pCIFEGCw0U9bMdRgQC4-21" value="&lt;b&gt;&lt;font style=&quot;font-size: 20px;&quot;&gt;EC2&lt;/font&gt;&lt;/b&gt;" style="text;strokeColor=none;align=center;fillColor=none;html=1;verticalAlign=middle;whiteSpace=wrap;rounded=0;" vertex="1" parent="UEzPUAAOIrF-is8g5C7q-108">
          <mxGeometry x="70" width="60" height="30" as="geometry" />
        </mxCell>
        <mxCell id="7pCIFEGCw0U9bMdRgQC4-16" value="" style="rounded=0;whiteSpace=wrap;html=1;labelBackgroundColor=none;fillColor=none;dashed=1;container=1;pointerEvents=0;collapsible=0;recursiveResize=0;" vertex="1" parent="7pCIFEGCw0U9bMdRgQC4-2">
          <mxGeometry x="400" y="310.5" width="230" height="199.5" as="geometry" />
        </mxCell>
        <mxCell id="7pCIFEGCw0U9bMdRgQC4-20" value="" style="sketch=0;outlineConnect=0;fontColor=#232F3E;gradientColor=none;fillColor=#2E27AD;strokeColor=none;dashed=0;verticalLabelPosition=bottom;verticalAlign=top;align=center;html=1;fontSize=12;fontStyle=0;aspect=fixed;pointerEvents=1;shape=mxgraph.aws4.elasticache_for_redis;" vertex="1" parent="7pCIFEGCw0U9bMdRgQC4-16">
          <mxGeometry x="70" y="69.5" width="100.61" height="89" as="geometry" />
        </mxCell>
        <mxCell id="7pCIFEGCw0U9bMdRgQC4-24" value="&lt;b&gt;&lt;font style=&quot;font-size: 20px;&quot;&gt;Elasticache for Redis&lt;/font&gt;&lt;/b&gt;" style="text;strokeColor=none;align=center;fillColor=none;html=1;verticalAlign=middle;whiteSpace=wrap;rounded=0;" vertex="1" parent="7pCIFEGCw0U9bMdRgQC4-16">
          <mxGeometry x="60" y="15" width="102.5" height="30" as="geometry" />
        </mxCell>
        <mxCell id="7pCIFEGCw0U9bMdRgQC4-18" value="" style="outlineConnect=0;dashed=0;verticalLabelPosition=bottom;verticalAlign=top;align=center;html=1;shape=mxgraph.aws3.elasticache;fillColor=#2E73B8;gradientColor=none;" vertex="1" parent="7pCIFEGCw0U9bMdRgQC4-16">
          <mxGeometry x="-20" y="-36" width="67.5" height="81" as="geometry" />
        </mxCell>
        <mxCell id="7pCIFEGCw0U9bMdRgQC4-11" value="" style="rounded=0;whiteSpace=wrap;html=1;labelBackgroundColor=none;fillColor=none;dashed=1;container=1;pointerEvents=0;collapsible=0;recursiveResize=0;" vertex="1" parent="7pCIFEGCw0U9bMdRgQC4-2">
          <mxGeometry x="400" y="50" width="230" height="180" as="geometry" />
        </mxCell>
        <mxCell id="7pCIFEGCw0U9bMdRgQC4-17" value="" style="outlineConnect=0;dashed=0;verticalLabelPosition=bottom;verticalAlign=top;align=center;html=1;shape=mxgraph.aws3.rds;fillColor=#2E73B8;gradientColor=none;" vertex="1" parent="7pCIFEGCw0U9bMdRgQC4-11">
          <mxGeometry x="-15.75" y="-21.5" width="59" height="70" as="geometry" />
        </mxCell>
        <mxCell id="7pCIFEGCw0U9bMdRgQC4-23" value="&lt;b&gt;&lt;font style=&quot;font-size: 20px;&quot;&gt;RDS&lt;/font&gt;&lt;/b&gt;" style="text;strokeColor=none;align=center;fillColor=none;html=1;verticalAlign=middle;whiteSpace=wrap;rounded=0;" vertex="1" parent="7pCIFEGCw0U9bMdRgQC4-11">
          <mxGeometry x="43.25" y="-1.5" width="60" height="30" as="geometry" />
        </mxCell>
        <mxCell id="7pCIFEGCw0U9bMdRgQC4-31" value="" style="shape=image;verticalLabelPosition=bottom;labelBackgroundColor=default;verticalAlign=top;aspect=fixed;imageAspect=0;image=https://cdn.icon-icons.com/icons2/2415/PNG/512/postgresql_plain_wordmark_logo_icon_146390.png;" vertex="1" parent="7pCIFEGCw0U9bMdRgQC4-11">
          <mxGeometry x="20" y="55.75" width="101.5" height="101.5" as="geometry" />
        </mxCell>
        <mxCell id="7pCIFEGCw0U9bMdRgQC4-32" value="" style="shape=image;verticalLabelPosition=bottom;labelBackgroundColor=default;verticalAlign=top;aspect=fixed;imageAspect=0;image=https://upload.wikimedia.org/wikipedia/en/thumb/6/60/PostGIS_logo.png/150px-PostGIS_logo.png;" vertex="1" parent="7pCIFEGCw0U9bMdRgQC4-11">
          <mxGeometry x="130" y="61.5" width="90" height="90" as="geometry" />
        </mxCell>
        <mxCell id="7pCIFEGCw0U9bMdRgQC4-50" style="edgeStyle=orthogonalEdgeStyle;rounded=0;orthogonalLoop=1;jettySize=auto;html=1;strokeWidth=2;startArrow=classicThin;startFill=1;" edge="1" parent="7pCIFEGCw0U9bMdRgQC4-2" source="7pCIFEGCw0U9bMdRgQC4-5" target="7pCIFEGCw0U9bMdRgQC4-16">
          <mxGeometry relative="1" as="geometry" />
        </mxCell>
        <mxCell id="7pCIFEGCw0U9bMdRgQC4-51" style="edgeStyle=orthogonalEdgeStyle;rounded=0;orthogonalLoop=1;jettySize=auto;html=1;entryX=0;entryY=0.5;entryDx=0;entryDy=0;strokeWidth=2;startArrow=classic;startFill=1;" edge="1" parent="7pCIFEGCw0U9bMdRgQC4-2" source="7pCIFEGCw0U9bMdRgQC4-5" target="7pCIFEGCw0U9bMdRgQC4-11">
          <mxGeometry relative="1" as="geometry" />
        </mxCell>
        <mxCell id="7pCIFEGCw0U9bMdRgQC4-59" style="edgeStyle=orthogonalEdgeStyle;rounded=0;orthogonalLoop=1;jettySize=auto;html=1;entryX=0;entryY=0.5;entryDx=0;entryDy=0;startArrow=classic;startFill=1;strokeWidth=2;" edge="1" parent="UEzPUAAOIrF-is8g5C7q-75" source="7pCIFEGCw0U9bMdRgQC4-54" target="UEzPUAAOIrF-is8g5C7q-108">
          <mxGeometry relative="1" as="geometry" />
        </mxCell>
        <mxCell id="7pCIFEGCw0U9bMdRgQC4-54" value="" style="outlineConnect=0;dashed=0;verticalLabelPosition=bottom;verticalAlign=top;align=center;html=1;shape=mxgraph.aws3.application_load_balancer;fillColor=#F58534;gradientColor=none;" vertex="1" parent="UEzPUAAOIrF-is8g5C7q-75">
          <mxGeometry x="64.5" y="288.99" width="65.5" height="71.01" as="geometry" />
        </mxCell>
        <mxCell id="7pCIFEGCw0U9bMdRgQC4-34" value="" style="outlineConnect=0;dashed=0;verticalLabelPosition=bottom;verticalAlign=top;align=center;html=1;shape=mxgraph.aws3.route_53;fillColor=#F58536;gradientColor=none;" vertex="1" parent="UEzPUAAOIrF-is8g5C7q-75">
          <mxGeometry x="58.38" y="440" width="77.75" height="90.75" as="geometry" />
        </mxCell>
        <mxCell id="7pCIFEGCw0U9bMdRgQC4-56" value="&lt;span style=&quot;font-size: 20px;&quot;&gt;&lt;b&gt;ALB&lt;/b&gt;&lt;/span&gt;" style="text;strokeColor=none;align=center;fillColor=none;html=1;verticalAlign=middle;whiteSpace=wrap;rounded=0;" vertex="1" parent="UEzPUAAOIrF-is8g5C7q-75">
          <mxGeometry x="69.5" y="370" width="55.5" height="30" as="geometry" />
        </mxCell>
        <mxCell id="7pCIFEGCw0U9bMdRgQC4-61" value="&lt;span style=&quot;font-size: 20px;&quot;&gt;&lt;b&gt;Route53&lt;/b&gt;&lt;/span&gt;" style="text;strokeColor=none;align=center;fillColor=none;html=1;verticalAlign=middle;whiteSpace=wrap;rounded=0;" vertex="1" parent="UEzPUAAOIrF-is8g5C7q-75">
          <mxGeometry x="69.5" y="550" width="55.5" height="30" as="geometry" />
        </mxCell>
        <mxCell id="7pCIFEGCw0U9bMdRgQC4-64" value="&lt;span style=&quot;font-size: 20px;&quot;&gt;&lt;b&gt;HTTP&lt;br&gt;(80)&lt;br&gt;&lt;/b&gt;&lt;/span&gt;" style="text;strokeColor=none;align=center;fillColor=none;html=1;verticalAlign=middle;whiteSpace=wrap;rounded=0;" vertex="1" parent="UEzPUAAOIrF-is8g5C7q-75">
          <mxGeometry x="154.5" y="340" width="55.5" height="30" as="geometry" />
        </mxCell>
        <mxCell id="7pCIFEGCw0U9bMdRgQC4-40" value="" style="edgeStyle=orthogonalEdgeStyle;rounded=0;orthogonalLoop=1;jettySize=auto;html=1;startArrow=openThin;startFill=0;strokeWidth=2;" edge="1" parent="1" source="7pCIFEGCw0U9bMdRgQC4-33" target="7pCIFEGCw0U9bMdRgQC4-54">
          <mxGeometry relative="1" as="geometry" />
        </mxCell>
        <mxCell id="7pCIFEGCw0U9bMdRgQC4-33" value="" style="sketch=0;outlineConnect=0;fontColor=#232F3E;gradientColor=none;fillColor=#232F3D;strokeColor=none;dashed=0;verticalLabelPosition=bottom;verticalAlign=top;align=center;html=1;fontSize=12;fontStyle=0;aspect=fixed;pointerEvents=1;shape=mxgraph.aws4.client;" vertex="1" parent="1">
          <mxGeometry x="30" y="353.26000000000005" width="106.18" height="103.46" as="geometry" />
        </mxCell>
        <mxCell id="7pCIFEGCw0U9bMdRgQC4-39" value="&lt;span style=&quot;font-size: 20px;&quot;&gt;&lt;b&gt;Client&lt;/b&gt;&lt;/span&gt;" style="text;strokeColor=none;align=center;fillColor=none;html=1;verticalAlign=middle;whiteSpace=wrap;rounded=0;" vertex="1" parent="1">
          <mxGeometry x="14.759999999999994" y="470" width="130.48" height="30" as="geometry" />
        </mxCell>
        <mxCell id="7pCIFEGCw0U9bMdRgQC4-63" value="&lt;span style=&quot;font-size: 20px;&quot;&gt;&lt;b&gt;HTTPS&lt;br&gt;(443)&lt;br&gt;&lt;/b&gt;&lt;/span&gt;" style="text;strokeColor=none;align=center;fillColor=none;html=1;verticalAlign=middle;whiteSpace=wrap;rounded=0;" vertex="1" parent="1">
          <mxGeometry x="170" y="426.72" width="55.5" height="30" as="geometry" />
        </mxCell>
        <mxCell id="7pCIFEGCw0U9bMdRgQC4-68" style="edgeStyle=orthogonalEdgeStyle;rounded=0;orthogonalLoop=1;jettySize=auto;html=1;endArrow=classic;endFill=1;startArrow=classic;startFill=1;strokeWidth=2;" edge="1" parent="1" source="7pCIFEGCw0U9bMdRgQC4-34" target="7pCIFEGCw0U9bMdRgQC4-39">
          <mxGeometry relative="1" as="geometry">
            <Array as="points">
              <mxPoint x="80" y="565" />
            </Array>
          </mxGeometry>
        </mxCell>
        <mxCell id="7pCIFEGCw0U9bMdRgQC4-70" value="&lt;span style=&quot;font-size: 20px;&quot;&gt;&lt;b&gt;DNS&lt;br&gt;&lt;/b&gt;&lt;/span&gt;" style="text;strokeColor=none;align=center;fillColor=none;html=1;verticalAlign=middle;whiteSpace=wrap;rounded=0;" vertex="1" parent="1">
          <mxGeometry x="150" y="580" width="55.5" height="30" as="geometry" />
        </mxCell>
      </root>
    </mxGraphModel>
  </diagram>
</mxfile>
